<?xml version="1.0" standalone="no"?>
<!DOCTYPE svg PUBLIC "-//W3C//DTD SVG 20010904//EN"
 "http://www.w3.org/TR/2001/REC-SVG-20010904/DTD/svg10.dtd">
<svg version="1.0" xmlns="http://www.w3.org/2000/svg"
 width="756.000000pt" height="756.000000pt" viewBox="0 0 756.000000 756.000000"
 preserveAspectRatio="xMidYMid meet">
<metadata>
Created by potrace 1.11, written by Peter Selinger 2001-2013
</metadata>
<g transform="translate(0.000000,756.000000) scale(0.100000,-0.100000)"
fill="#000000" stroke="none">
<path d="M1447 7264 c-5 -5 -18 -8 -87 -19 -84 -13 -235 -64 -310 -104 -152
-81 -240 -147 -347 -259 -71 -74 -153 -183 -153 -202 0 -6 -4 -10 -8 -10 -5 0
-28 -42 -51 -92 -65 -141 -75 -167 -97 -268 -24 -106 -25 -109 -29 -250 -4
-172 6 -254 50 -400 1 -3 5 -18 10 -35 4 -16 17 -48 28 -70 11 -22 19 -41 18
-43 -4 -7 77 -156 102 -187 4 -5 14 -19 21 -29 12 -18 20 -14 137 73 68 51
134 100 147 109 22 17 433 323 482 361 14 10 147 109 295 219 149 111 275 205
280 210 6 4 26 19 45 32 19 14 37 28 40 31 5 5 63 48 121 91 34 25 182 136
194 146 6 4 26 19 45 32 19 14 37 27 40 30 3 3 41 32 85 64 44 33 83 64 87 70
10 14 -24 58 -119 151 -178 177 -406 291 -681 342 -36 6 -339 12 -345 7z"/>
<path d="M5735 7254 c-44 -8 -95 -19 -113 -25 -18 -6 -39 -12 -45 -13 -83 -15
-282 -115 -387 -194 -74 -56 -223 -201 -241 -234 -10 -18 -3 -27 51 -68 19
-14 55 -42 82 -62 26 -21 52 -38 57 -38 5 0 11 -4 13 -9 2 -5 38 -34 80 -65
43 -30 83 -60 90 -66 10 -9 699 -524 786 -588 55 -41 129 -95 152 -113 28 -22
203 -153 246 -184 32 -24 94 -71 110 -84 6 -5 35 -26 65 -47 30 -21 77 -56
106 -79 71 -55 141 -105 147 -105 9 0 96 147 130 221 55 119 89 234 104 349 9
70 9 302 0 357 -37 220 -120 414 -253 588 -41 54 -192 202 -227 223 -15 9 -28
20 -28 24 0 4 -4 8 -9 8 -6 0 -29 13 -53 29 -111 73 -289 144 -413 165 -16 3
-52 10 -80 15 -73 14 -277 11 -370 -5z"/>
<path d="M3556 6643 c-1 -2 -38 -5 -82 -8 -43 -2 -88 -6 -99 -8 -11 -3 -47 -8
-80 -12 -57 -7 -72 -9 -125 -20 -14 -2 -38 -7 -55 -10 -51 -8 -69 -13 -202
-49 -51 -14 -108 -32 -128 -40 -19 -8 -35 -13 -35 -11 0 3 -39 -12 -155 -60
-64 -26 -90 -35 -99 -34 -5 0 -12 -3 -15 -8 -3 -4 -53 -32 -111 -61 -348 -177
-645 -412 -913 -720 -30 -35 -173 -224 -197 -261 -8 -13 -20 -29 -27 -36 -7
-7 -9 -15 -6 -19 4 -3 1 -6 -5 -6 -7 0 -12 -4 -12 -9 0 -5 -21 -45 -48 -88
-54 -88 -168 -315 -187 -373 -1 -3 -7 -18 -14 -35 -26 -63 -91 -264 -116 -359
-24 -94 -29 -119 -41 -191 -2 -16 -7 -43 -10 -58 -9 -42 -13 -74 -20 -152 -3
-38 -9 -92 -12 -120 -11 -74 -7 -363 7 -495 10 -108 14 -138 26 -200 3 -14 8
-42 11 -64 3 -21 8 -48 11 -60 2 -11 8 -37 13 -56 5 -19 11 -44 13 -56 30
-125 107 -347 163 -472 13 -29 24 -57 24 -62 0 -6 5 -10 10 -10 6 0 10 -6 10
-12 0 -20 65 -142 138 -261 37 -59 72 -116 77 -125 10 -18 124 -168 160 -211
62 -75 110 -127 211 -228 61 -61 114 -118 117 -127 3 -8 -5 -37 -19 -65 -13
-28 -24 -53 -24 -56 0 -2 -20 -46 -44 -97 -86 -184 -168 -372 -180 -412 -13
-46 -13 -74 4 -137 7 -24 13 -46 13 -49 1 -7 14 -23 57 -70 22 -24 65 -53 113
-74 42 -20 110 -51 150 -70 41 -18 84 -37 98 -41 13 -4 32 -15 43 -24 10 -9
19 -14 20 -11 0 2 44 -15 97 -38 121 -53 188 -58 272 -19 69 31 107 72 151
162 50 102 76 162 76 174 0 6 5 11 12 11 6 0 9 3 6 6 -5 5 14 52 90 216 19 43
18 43 63 24 112 -47 464 -126 624 -141 33 -3 85 -8 115 -12 107 -13 476 -5
570 12 14 2 45 7 70 10 106 14 382 73 430 92 20 8 20 8 55 18 17 4 36 12 43
18 6 5 12 7 12 4 0 -5 122 39 175 62 38 17 55 20 55 10 0 -6 11 -35 25 -65 14
-30 37 -80 51 -111 14 -32 31 -71 39 -88 8 -16 23 -50 34 -75 76 -173 114
-245 147 -276 97 -88 211 -98 354 -32 30 14 78 36 105 48 28 12 73 33 100 45
28 13 73 33 100 45 141 63 173 81 208 114 48 47 77 104 84 166 7 60 -6 115
-51 212 -31 68 -44 97 -95 211 -10 23 -40 88 -65 145 -25 56 -46 106 -46 111
0 5 -3 11 -7 13 -5 2 -23 40 -42 86 l-33 82 43 48 c24 26 54 58 67 72 13 14
49 57 80 95 31 39 62 75 67 81 6 6 17 22 25 34 8 12 29 41 45 64 169 229 338
580 422 876 20 72 42 159 48 190 17 84 26 129 30 151 8 46 25 184 31 244 6 64
6 430 0 480 -2 17 -7 59 -10 95 -9 79 -11 89 -35 220 -23 121 -25 130 -41 190
-7 25 -13 50 -15 55 -1 6 -4 17 -7 25 -3 8 -16 47 -27 85 -63 204 -171 438
-300 650 -20 33 -40 65 -44 70 -4 6 -34 46 -65 91 -124 175 -334 403 -492 535
-36 30 -67 56 -70 59 -3 3 -32 25 -65 50 -33 25 -61 48 -63 53 -2 4 -8 7 -13
7 -9 0 -68 38 -79 51 -7 8 -216 129 -276 159 -27 14 -52 30 -56 35 -4 6 -8 7
-8 2 0 -4 -22 4 -49 18 -28 13 -83 38 -123 53 -40 16 -82 33 -93 37 -11 4 -24
9 -30 11 -5 2 -68 21 -138 44 -107 33 -169 48 -347 85 -8 1 -44 6 -80 10 -36
4 -74 9 -85 12 -50 11 -489 26 -499 16z m-51 -624 c5 -33 37 -87 68 -116 113
-106 298 -71 365 68 12 25 22 51 22 57 0 8 9 11 23 8 12 -3 47 -8 77 -11 30
-4 62 -8 70 -10 71 -13 144 -29 189 -42 29 -8 59 -16 65 -17 6 -1 16 -4 21 -8
6 -3 26 -9 45 -13 19 -4 40 -11 45 -14 6 -4 39 -18 75 -31 158 -55 354 -162
530 -289 58 -42 121 -89 140 -106 79 -68 238 -229 285 -288 27 -34 60 -73 73
-87 12 -14 25 -33 28 -42 3 -10 10 -18 15 -18 5 0 9 -6 9 -14 0 -8 3 -16 8
-18 9 -4 52 -65 52 -74 0 -4 6 -15 14 -23 35 -41 175 -318 191 -381 1 -3 6
-16 12 -30 11 -26 43 -118 47 -135 2 -5 6 -17 9 -25 26 -70 83 -370 82 -433 0
-12 -18 -25 -60 -42 -119 -49 -174 -154 -145 -275 7 -28 15 -50 19 -50 3 0 12
-12 18 -27 16 -36 123 -101 143 -88 20 12 25 -29 14 -103 -20 -121 -24 -142
-45 -227 -43 -175 -101 -330 -185 -497 -43 -85 -150 -267 -164 -278 -3 -3 -22
-27 -40 -55 -115 -168 -357 -404 -555 -541 -105 -73 -336 -205 -365 -209 -3
-1 -25 -10 -50 -22 -49 -23 -80 -33 -94 -32 -5 0 -12 -3 -15 -8 -3 -5 -40 -19
-81 -32 -41 -12 -86 -27 -100 -31 -36 -13 -189 -48 -230 -54 -19 -2 -55 -8
-80 -12 -83 -13 -83 -13 -97 37 -29 102 -137 177 -239 166 -92 -9 -152 -53
-198 -144 -9 -18 -16 -35 -16 -38 1 -37 1 -37 -52 -30 -105 13 -151 21 -263
46 -49 11 -97 22 -105 26 -8 3 -24 8 -35 10 -11 2 -36 9 -55 15 -19 7 -37 13
-40 13 -3 1 -14 5 -25 10 -11 4 -54 21 -95 37 -88 34 -325 151 -340 169 -3 3
-23 16 -45 29 -39 23 -175 119 -185 130 -3 3 -27 23 -55 44 -95 76 -291 281
-376 396 -99 133 -163 236 -230 370 -41 82 -57 119 -99 225 -16 41 -51 141
-55 160 -2 11 -12 47 -21 80 -9 33 -18 69 -20 80 -2 11 -6 31 -9 45 -9 47 -15
85 -20 125 -3 22 -8 52 -11 66 -4 23 -2 26 29 27 109 4 204 98 214 214 12 122
-76 231 -198 245 l-50 6 6 56 c33 305 149 654 305 916 17 28 33 57 37 65 3 8
9 17 12 20 3 3 24 32 46 65 22 33 42 62 45 65 3 3 32 39 65 80 32 41 71 87 85
101 14 15 41 44 61 65 100 108 255 236 399 330 79 52 319 183 355 194 6 2 23
9 40 16 16 7 33 10 37 8 5 -3 8 -1 8 5 0 5 15 13 33 16 17 4 37 11 42 15 11 8
210 64 260 74 17 3 42 8 58 11 15 3 39 8 55 11 45 10 125 20 161 19 24 0 35
-5 36 -16z"/>
<path d="M3660 5315 l-23 -25 0 -725 0 -725 -34 -26 c-45 -34 -83 -76 -83 -91
0 -7 -4 -13 -8 -13 -11 0 -16 -35 -16 -125 0 -71 3 -85 28 -125 59 -91 121
-125 231 -124 92 0 124 13 188 77 l42 42 477 0 477 0 25 24 c49 46 51 135 4
178 -19 17 -53 18 -491 23 l-471 5 -16 30 c-22 44 -85 102 -134 124 l-43 20 0
717 0 717 -27 24 c-38 32 -95 31 -126 -2z"/>
</g>
</svg>
